<?xml version="1.0" encoding="iso-8859-1"?>
<!-- Generator: Adobe Illustrator 19.0.0, SVG Export Plug-In . SVG Version: 6.00 Build 0)  -->
<svg version="1.1" id="Capa_1" xmlns="http://www.w3.org/2000/svg" xmlns:xlink="http://www.w3.org/1999/xlink" x="0px" y="0px"
	 viewBox="0 0 464 464" style="enable-background:new 0 0 464 464;" xml:space="preserve">
<path style="fill:#FFF69A;" d="M0,68h464l0,0v352c0,17.673-14.327,32-32,32H32c-17.673,0-32-14.327-32-32V68L0,68z"/>
<path style="fill:#FDBD40;" d="M0,68h464v112H0V68z"/>
<g>
	<path style="fill:#5A6470;" d="M80,124c-30.928,0-56-25.072-56-56s25.072-56,56-56s56,25.072,56,56c0,4.418-3.582,8-8,8
		s-8-3.582-8-8c0-22.091-17.909-40-40-40S40,45.909,40,68s17.909,40,40,40c4.418,0,8,3.582,8,8S84.418,124,80,124z"/>
	<path style="fill:#5A6470;" d="M232,124c-30.928,0-56-25.072-56-56s25.072-56,56-56s56,25.072,56,56c0,4.418-3.582,8-8,8
		s-8-3.582-8-8c0-22.091-17.909-40-40-40s-40,17.909-40,40s17.909,40,40,40c4.418,0,8,3.582,8,8S236.418,124,232,124z"/>
	<path style="fill:#5A6470;" d="M384,124c-30.928,0-56-25.072-56-56s25.072-56,56-56s56,25.072,56,56c0,4.418-3.582,8-8,8
		s-8-3.582-8-8c0-22.091-17.909-40-40-40s-40,17.909-40,40s17.909,40,40,40c4.418,0,8,3.582,8,8S388.418,124,384,124z"/>
</g>
<g>
	<path style="fill:#E9686A;" d="M208,212h48v48h-48V212z"/>
	<path style="fill:#E9686A;" d="M288,212h48v48h-48V212z"/>
	<path style="fill:#E9686A;" d="M368,212h48v48h-48V212z"/>
	<path style="fill:#E9686A;" d="M128,212h48v48h-48V212z"/>
	<path style="fill:#E9686A;" d="M48,212h48v48H48V212z"/>
	<path style="fill:#E9686A;" d="M288,292h48v48h-48V292z"/>
	<path style="fill:#E9686A;" d="M368,292h48v48h-48V292z"/>
	<path style="fill:#E9686A;" d="M128,292h48v48h-48V292z"/>
	<path style="fill:#E9686A;" d="M48,292h48v48H48V292z"/>
	<path style="fill:#E9686A;" d="M208,372h48v48h-48V372z"/>
	<path style="fill:#E9686A;" d="M288,372h48v48h-48V372z"/>
	<path style="fill:#E9686A;" d="M368,372h48v48h-48V372z"/>
	<path style="fill:#E9686A;" d="M128,372h48v48h-48V372z"/>
	<path style="fill:#E9686A;" d="M48,372h48v48H48V372z"/>
</g>
<path style="fill:#5A6470;" d="M224,348c-2.674,0-5.172-1.335-6.656-3.56l-16-24c-2.452-3.676-1.46-8.644,2.216-11.096
	c3.676-2.452,8.644-1.46,11.096,2.216L224,325.6l25.344-38.016c2.452-3.676,7.42-4.668,11.096-2.216s4.668,7.42,2.216,11.096l0,0
	l-32,48C229.166,346.679,226.67,348.006,224,348L224,348z"/>
<path style="fill:#FFFFFF;" d="M256,140h168v16H256V140z"/>
<g>
</g>
<g>
</g>
<g>
</g>
<g>
</g>
<g>
</g>
<g>
</g>
<g>
</g>
<g>
</g>
<g>
</g>
<g>
</g>
<g>
</g>
<g>
</g>
<g>
</g>
<g>
</g>
<g>
</g>
</svg>
