<svg height="464pt" viewBox="0 -31 464 463" width="464pt" xmlns="http://www.w3.org/2000/svg"><path d="m392 48.5h-32c-4.417969 0-8 3.582031-8 8s3.582031 8 8 8h24v56c0 4.417969 3.582031 8 8 8s8-3.582031 8-8v-64c0-4.417969-3.582031-8-8-8zm0 0" fill="#394d5c"/><path d="m0 192.5h464v208h-464zm0 0" fill="#36afad"/><path d="m64 224.5h368v32h-368zm0 0" fill="#fdbd40"/><path d="m0 192.5h32v208h-32zm0 0" fill="#2d75bb"/><path d="m328 .5h32v288h-32zm0 0" fill="#db527d"/><path d="m344 336.5-16-48h32zm0 0" fill="#394d5c"/><path d="m328 .5h32v32h-32zm0 0" fill="#394d5c"/><path d="m424 368.5h-160c-4.417969 0-8-3.582031-8-8s3.582031-8 8-8h160c4.417969 0 8 3.582031 8 8s-3.582031 8-8 8zm0 0" fill="#ffd782"/><path d="m152 328.5c0 22.089844-17.910156 40-40 40s-40-17.910156-40-40 17.910156-40 40-40 40 17.910156 40 40zm0 0" fill="#2d75bb"/></svg>