<svg height="464pt" viewBox="-8 0 464 464" width="464pt" xmlns="http://www.w3.org/2000/svg"><path d="m0 304h448v160h-448zm0 0" fill="#e97424"/><path d="m32 0h384v304h-384zm0 0" fill="#ffd782"/><path d="m0 208h32v32h-32zm0 0" fill="#394d5c"/><path d="m416 208h32v32h-32zm0 0" fill="#394d5c"/><path d="m128 24h-64c-4.417969 0-8 3.582031-8 8v40c0 4.417969 3.582031 8 8 8s8-3.582031 8-8v-32h56c4.417969 0 8-3.582031 8-8s-3.582031-8-8-8zm0 0" fill="#fff"/><path d="m64 128c-4.417969 0-8-3.582031-8-8v-16c0-4.417969 3.582031-8 8-8s8 3.582031 8 8v16c0 4.417969-3.582031 8-8 8zm0 0" fill="#fff"/><g fill="#7d8d9c"><path d="m328 104h-200c-4.417969 0-8-3.582031-8-8s3.582031-8 8-8h200c4.417969 0 8 3.582031 8 8s-3.582031 8-8 8zm0 0"/><path d="m328 136h-200c-4.417969 0-8-3.582031-8-8s3.582031-8 8-8h200c4.417969 0 8 3.582031 8 8s-3.582031 8-8 8zm0 0"/><path d="m328 168h-200c-4.417969 0-8-3.582031-8-8s3.582031-8 8-8h200c4.417969 0 8 3.582031 8 8s-3.582031 8-8 8zm0 0"/></g><path d="m0 304h448v32h-448zm0 0" fill="#394d5c"/><path d="m0 240h32v64h-32zm0 0" fill="#e97424"/><path d="m416 240h32v64h-32zm0 0" fill="#e97424"/></svg>