<svg height="463pt" viewBox="0 -60 463.99829 463" width="463pt" xmlns="http://www.w3.org/2000/svg"><path d="m0 88.402344h160v128h-160zm0 0" fill="#e9686a"/><path d="m360 16.402344h15c9.390625 0 17 7.609375 17 17v238c0 9.386718-7.609375 17-17 17h-15zm0 0" fill="#e9686a"/><path d="m112 216.402344h48v104c0 13.253906-10.746094 24-24 24s-24-10.746094-24-24zm0 0" fill="#394d5c"/><path d="m32 88.402344h32v32h-32zm0 0" fill="#394d5c"/><path d="m96 88.402344h32v32h-32zm0 0" fill="#394d5c"/><path d="m160 88.402344v128l200 72v-272zm0 0" fill="#cfdfe8"/><path d="m392 120.402344h32v64h-32zm0 0" fill="#394d5c"/><g fill="#fdbd40"><path d="m424 48.402344c-3.234375-.003906-6.152344-1.953125-7.390625-4.941406-1.238281-2.988282-.550781-6.429688 1.734375-8.714844l32-32c3.140625-3.03125 8.128906-2.988282 11.214844.097656 3.085937 3.085938 3.128906 8.074219.097656 11.214844l-32 32c-1.5 1.5-3.535156 2.339844-5.65625 2.34375zm0 0"/><path d="m424 96.402344c-3.234375-.003906-6.152344-1.953125-7.390625-4.941406-1.238281-2.988282-.550781-6.429688 1.734375-8.714844l32-32c3.140625-3.03125 8.128906-2.988282 11.214844.097656 3.085937 3.085938 3.128906 8.074219.097656 11.214844l-32 32c-1.5 1.5-3.535156 2.339844-5.65625 2.34375zm0 0"/><path d="m456 256.402344c-2.121094-.003906-4.15625-.84375-5.65625-2.34375l-32-32c-3.03125-3.140625-2.988281-8.128906.097656-11.214844 3.085938-3.085938 8.074219-3.128906 11.214844-.097656l32 32c2.285156 2.285156 2.972656 5.726562 1.734375 8.714844-1.238281 2.988281-4.15625 4.9375-7.390625 4.941406zm0 0"/><path d="m456 304.402344c-2.121094-.003906-4.15625-.84375-5.65625-2.34375l-32-32c-3.03125-3.140625-2.988281-8.128906.097656-11.214844 3.085938-3.085938 8.074219-3.128906 11.214844-.097656l32 32c2.285156 2.285156 2.972656 5.726562 1.734375 8.714844-1.238281 2.988281-4.15625 4.9375-7.390625 4.941406zm0 0"/></g></svg>