<svg id="Capa_1" enable-background="new 0 0 512 512" height="512" viewBox="0 0 512 512" width="512" xmlns="http://www.w3.org/2000/svg"><g><g><path d="m497 466.802h-482c-8.284 0-15-6.716-15-15v-241c0-8.284 6.716-15 15-15h482c8.284 0 15 6.716 15 15v241c0 8.284-6.716 15-15 15z" fill="#f3f5fc"/></g><path d="m497 195.802h-241.275v271h241.275c8.284 0 15-6.716 15-15v-241c0-8.285-6.716-15-15-15z" fill="#dce0ea"/><path d="m436.75 286.177h-361.5c-8.284 0-15 6.716-15 15s6.716 15 15 15h361.5c8.284 0 15-6.716 15-15s-6.716-15-15-15z" fill="#464b52"/><path d="m436.75 286.177h-181.025v30h181.025c8.284 0 15-6.716 15-15s-6.716-15-15-15z" fill="#292b2f"/><path d="m195.757 346.427h-120.507c-8.284 0-15 6.716-15 15s6.716 15 15 15h120.507c8.284 0 15-6.716 15-15s-6.715-15-15-15z" fill="#464b52"/><path d="m498.709 58.46c-17.682-17.682-46.453-17.682-64.135 0l-227.87 227.87c-25.116 25.115-25.936 70.013-25.947 75.05-.008 3.989 1.572 7.817 4.394 10.639 2.813 2.813 6.628 4.394 10.606 4.394h.032c5.037-.011 49.934-.83 75.05-25.947l227.87-227.87c8.566-8.565 13.283-19.954 13.283-32.067s-4.717-23.504-13.283-32.069z" fill="#76cefb"/><path d="m195.757 376.412h.032c5.037-.011 49.934-.83 75.05-25.947l227.87-227.87c8.566-8.565 13.283-19.954 13.283-32.067s-4.717-23.502-13.283-32.067l-313.558 313.557c2.813 2.814 6.628 4.394 10.606 4.394z" fill="#6897f4"/><g><path d="m445.181 255.755c-3.839 0-7.677-1.464-10.606-4.394-5.858-5.857-5.858-15.355 0-21.213l31.613-31.612c5.92-5.92 9.181-13.792 9.181-22.164s-3.261-16.244-9.181-22.164l-63.68-63.68 21.213-21.213 63.68 63.68c23.918 23.918 23.918 62.836 0 86.754l-31.613 31.612c-2.929 2.929-6.768 4.394-10.607 4.394z" fill="#464b52"/></g><path d="m487.4 132.995-31.613-31.613-21.213 21.213 31.613 31.613c5.92 5.92 9.181 13.792 9.181 22.164s-3.261 16.244-9.181 22.164l-31.613 31.612c-5.858 5.857-5.858 15.355 0 21.213 2.929 2.93 6.767 4.394 10.606 4.394 3.838 0 7.678-1.465 10.606-4.394l31.613-31.612c23.92-23.918 23.92-62.836.001-86.754z" fill="#292b2f"/></g></svg>