<svg height="464pt" viewBox="0 -24 464 464" width="464pt" xmlns="http://www.w3.org/2000/svg"><path d="m48 272h32v32h32v-32h32v-96h-96zm0 0" fill="#f6bf9b"/><path d="m328 144v96h32v32h32v-32h32v-96zm0 0" fill="#f6bf9b"/><path d="m424 416h-96v-144h96zm0 0" fill="#2d75bb"/><path d="m48 304h96v112h-96zm0 0" fill="#36afad"/><path d="m296 352h64v-32c0-8.835938 7.164062-16 16-16s16 7.164062 16 16v64h-96zm0 0" fill="#f6bf9b"/><path d="m280 280h48v32h-48zm0 0" fill="#f6bf9b"/><path d="m176 368h-68.566406c-6.632813.65625-11.433594-7.878906-11.433594-17.136719-.535156-7.144531 4.390625-13.546875 11.433594-14.863281h68.566406zm0 0" fill="#f6bf9b"/><path d="m0 48v96h184v64l32-64v-96zm0 0" fill="#ffd782"/><path d="m272 0v102.664062l24 73.671876.335938-80.335938h167.664062v-96zm0 0" fill="#ffd782"/><g fill="#394d5c"><path d="m48 176h96v32h-96zm0 0"/><path d="m424 176h-96v-32h96zm0 0"/><path d="m128 88h-96c-4.417969 0-8-3.582031-8-8s3.582031-8 8-8h96c4.417969 0 8 3.582031 8 8s-3.582031 8-8 8zm0 0"/><path d="m184 88h-24c-4.417969 0-8-3.582031-8-8s3.582031-8 8-8h24c4.417969 0 8 3.582031 8 8s-3.582031 8-8 8zm0 0"/><path d="m168 120h-120c-4.417969 0-8-3.582031-8-8s3.582031-8 8-8h120c4.417969 0 8 3.582031 8 8s-3.582031 8-8 8zm0 0"/><path d="m368 40h-64c-4.417969 0-8-3.582031-8-8s3.582031-8 8-8h64c4.417969 0 8 3.582031 8 8s-3.582031 8-8 8zm0 0"/><path d="m424 40h-16c-4.417969 0-8-3.582031-8-8s3.582031-8 8-8h16c4.417969 0 8 3.582031 8 8s-3.582031 8-8 8zm0 0"/><path d="m352 72h-48c-4.417969 0-8-3.582031-8-8s3.582031-8 8-8h48c4.417969 0 8 3.582031 8 8s-3.582031 8-8 8zm0 0"/><path d="m440 72h-56c-4.417969 0-8-3.582031-8-8s3.582031-8 8-8h56c4.417969 0 8 3.582031 8 8s-3.582031 8-8 8zm0 0"/></g></svg>