<svg id="Capa_1" enable-background="new 0 0 512.004 512.004" height="512" viewBox="0 0 512.004 512.004" width="512" xmlns="http://www.w3.org/2000/svg"><g><path d="m305.062 256.001h-29.995c0-5.261-2.143-10.02-5.593-13.47s-8.21-5.593-13.47-5.593v-29.995c13.534 0 25.795 5.501 34.677 14.383 8.88 8.88 14.381 21.141 14.381 34.675z" fill="#28abf9"/><path d="m275.067 256.001c0-5.261-2.143-10.02-5.593-13.47l21.206-21.206c8.881 8.881 14.383 21.143 14.383 34.677z" fill="#318def"/><path d="m374.288 256.001h-29.995c0-24.339-9.907-46.407-25.894-62.395s-38.056-25.894-62.395-25.894v-29.995c32.612 0 62.183 13.265 83.601 34.684 21.418 21.417 34.683 50.988 34.683 83.6z" fill="#28abf9"/><path d="m344.292 256.001c0-24.339-9.907-46.407-25.894-62.395l21.206-21.206c21.418 21.418 34.684 50.99 34.684 83.601z" fill="#318def"/><path d="m443.146 256.001h-29.996c0-43.332-17.628-82.611-46.082-111.065s-67.734-46.082-111.065-46.082v-29.996c51.605 0 98.387 20.987 132.271 54.872s54.872 80.666 54.872 132.271z" fill="#28abf9"/><path d="m413.151 256.001c0-43.332-17.628-82.611-46.082-111.065l21.206-21.206c33.885 33.885 54.872 80.667 54.872 132.271z" fill="#318def"/><path d="m512.004 256.001h-29.995c-.007-62.303-25.35-118.801-66.277-159.728s-97.425-66.27-159.728-66.277v-29.996c68.377 0 132.667 26.63 181.019 74.982s74.981 112.642 74.981 181.019z" fill="#28abf9"/><path d="m482.009 256.001c-.007-62.303-25.35-118.801-66.277-159.728l21.291-21.291c48.352 48.352 74.982 112.642 74.982 181.019z" fill="#318def"/><path d="m406.744 469.929-25.986 25.986c-43.155 43.155-159.778-3.493-260.477-104.192s-147.347-217.322-104.192-260.477l25.986-25.986 71.092 34.238 33.1 69.954c-10.896 10.981-12.07 28.263-2.835 40.694 15.832 21.291 34.259 42.702 54.992 63.435 20.732 20.732 42.144 39.16 63.435 54.992 12.431 9.235 29.713 8.061 40.694-2.835l69.954 33.1z" fill="#fe4945"/><path d="m406.744 469.929-25.986 25.986c-43.155 43.155-159.778-3.493-260.477-104.192l78.142-78.142c20.732 20.732 42.144 39.16 63.435 54.992 12.431 9.235 29.713 8.061 40.694-2.835l69.954 33.1z" fill="#fa185e"/><path d="m354.711 313.578-52.072 52.072c-.03.03-.061.058-.091.087l104.191 104.193 52.161-52.161z" fill="#bbe4f2"/><path d="m146.354 209.366 52.072-52.072-104.19-104.191-52.161 52.161 104.192 104.192c.029-.029.057-.061.087-.09z" fill="#e6f3ff"/></g></svg>